<?xml version="1.0" encoding="utf-8"?>
<!-- Generator: Adobe Illustrator 25.2.0, SVG Export Plug-In . SVG Version: 6.00 Build 0)  -->
<svg version="1.1" id="Layer_5" xmlns="http://www.w3.org/2000/svg" xmlns:xlink="http://www.w3.org/1999/xlink" x="0px" y="0px"
	 viewBox="0 0 606 423" style="enable-background:new 0 0 606 423;" xml:space="preserve">
<style type="text/css">
	.st0{fill:#12151F;}
	.st1{fill:#05F4B7;}
	.st2{fill:#371BB1;}
	.st3{fill:#CF0091;}
	.st4{fill:none;stroke:#12151F;stroke-miterlimit:10;}
	.st5{fill:none;stroke:#05F4B7;stroke-miterlimit:10;}
	.st6{fill:none;stroke:#371BB1;stroke-miterlimit:10;}
	.st7{fill:none;}
	.st8{fill:#FFFFFF;}
	.st9{enable-background:new    ;}
</style>
<rect x="-694" y="-190" class="st0" width="119" height="119"/>
<rect x="-530" y="-190" class="st1" width="119" height="119"/>
<rect x="-366" y="-190" class="st2" width="119" height="119"/>
<rect x="-199" y="-190" class="st3" width="119" height="119"/>
<rect x="-694" y="-358" class="st4" width="119" height="119"/>
<rect x="-530" y="-358" class="st5" width="119" height="119"/>
<rect x="-366" y="-358" class="st6" width="119" height="119"/>
<path class="st0" d="M-851.6-137.6c-6.1,17.4-13.5,27.6-21.4,27.6s-15.3-10.2-21.4-27.6c2.1,0.6,4.2,1.3,6.2,2.3
	c-1.9-1.9-4-3.6-6.3-5.2c-0.4-0.3-0.8-0.6-1.2-0.8c-0.8-2.5-1.6-5.1-2.3-7.8c2.8,1.5,5.6,2.9,8.3,4c-3.4-2.3-6.5-4.7-9.1-7.2
	c-3.5-13.7-6.5-30.2-8.5-48.7c4.7,3.3,9.2,5.8,13,7.4c-0.7-0.5-1.4-1.1-2.1-1.6c-4-3.1-7.8-6.3-11.3-9.4
	c-2.1-19.7-3.2-41.5-3.2-64.4c0-1,0-1.9,0-2.9c1.3,1.2,2.8,2.4,4.3,3.6c6.5,5,13.1,8.5,18.5,10.2c-0.7-0.5-1.4-1.1-2.1-1.6
	c-8.3-6.5-15.4-13.3-20.6-19.5c0.4-29.1,2.8-56,6.4-78.8c4,2.5,7.8,4.4,11.1,5.6c-0.7-0.5-1.4-1.1-2.1-1.6c-3-2.4-5.9-4.7-8.5-7.1
	c6.9-40.5,18.2-66.9,31-66.9s24.1,26.4,31,66.9c-2.7,2.4-5.5,4.7-8.5,7.1c-0.7,0.5-1.4,1.1-2.1,1.6c3.3-1.2,7.2-3.1,11.1-5.6
	c3.7,22.8,6,49.7,6.4,78.8c-5.2,6.2-12.3,13-20.6,19.5c-0.7,0.5-1.4,1.1-2.1,1.6c5.5-1.6,12.1-5.2,18.5-10.2
	c1.5-1.2,2.9-2.4,4.3-3.6c0,1,0,1.9,0,2.9c0,22.9-1.2,44.8-3.2,64.4c-3.5,3.1-7.2,6.2-11.3,9.4c-0.7,0.5-1.4,1.1-2.1,1.6
	c3.8-1.6,8.3-4.1,13-7.4c-2.1,18.4-5,34.9-8.5,48.7c-2.7,2.5-5.8,4.9-9.1,7.2c2.7-1.2,5.5-2.5,8.3-4c-0.7,2.7-1.5,5.3-2.3,7.8
	c-0.4,0.3-0.8,0.5-1.2,0.8c-2.3,1.6-4.4,3.4-6.3,5.2C-855.8-136.2-853.7-137-851.6-137.6z M-875-258.5c0,93.6-1,168.5,2,169.5
	s2-75.9,2-169.5s-0.9-169.5-2-169.5S-875-352.1-875-258.5z M-873-110c-0.7,0-1.3-0.1-2-0.2c0,11.7,0.9,21.2,2,21.2s2-9.5,2-21.2
	C-871.7-110.1-872.4-110-873-110z"/>
<path class="st2" d="M175.9-247.6c-20.1-7.2-33.4-16.3-36.1-26.3c-2.8-10.4,6.1-20.3,23.9-28.8c0,3-0.2,5.9-0.7,8.7
	c1.5-2.6,2.9-5.5,4.1-8.8c0.2-0.6,0.4-1.1,0.6-1.7c2.6-1.1,5.4-2.2,8.3-3.3c-1,4-1.7,7.9-2.3,11.7c1.7-4.7,3.6-9,5.7-12.9
	c15.1-5.1,33.8-9.4,55.2-12.5c-3.1,7-3.9,8.5-5.1,14c0.5-1,6.2-9.4,9.3-14.6c23.2-3.1,49.1-4.9,76.5-4.9c1.2,0,5.8,0,7,0
	c-1.5,2-5.2,7.2-5.2,7.2s4.1-3.8,10.4-7.1c34.7,0.7,66.3,4.1,92.3,9.6c-4,5.8-4.8,8.5-4.8,8.5s4.8-3.9,8.3-7.8
	c45,10,70.7,25.7,65.5,42.6c-4.9,16-36.7,29.4-80.4,37.3c-1.9-3-3.7-6.3-5.6-9.8c-0.4-0.8-0.9-1.6-1.3-2.4c0.6,3.9,1.8,8.3,3.6,12.9
	c-24,4.1-51.7,6.7-81.3,7.2c-6.1-5.8-13-13.9-19.7-23.7c-0.6-0.8-1.1-1.7-1.7-2.5c1.7,6.5,5.4,14.2,10.4,21.5
	c1.2,1.7,2.4,3.2,3.6,4.7c-1,0-2,0-3,0c-23.3,0-45.5-1.3-65.8-3.6c-3.5-3.9-7.2-8.2-11-12.8c-0.7-0.8-1.3-1.6-2-2.4
	c2.2,4.4,5.4,9.5,9.3,14.8c-19.2-2.3-36.7-5.6-51.6-9.7c-3.2-3.1-6.5-6.7-9.7-10.8c1.9,3.2,4,6.5,6.2,9.8c-3-0.9-5.9-1.8-8.6-2.7
	c-0.4-0.5-0.8-1-1.2-1.4c-2.3-2.7-4.7-5.2-7.2-7.5C173.4-252.6,174.8-250.1,175.9-247.6z M302.9-276.5c-103.2,0-186.1-1.3-186.1,2.6
	c0.1,3.8,83.7,2.6,186.1,2.6s185.6-1.1,186.1-2.6S406-276.5,302.9-276.5z M139.9-273.9c-0.2-0.9-0.4-1.7-0.4-2.6
	c-12.9,0-23,1.2-22.6,2.6s11.1,2.5,24,2.6C140.4-272.2,140.1-273,139.9-273.9z"/>
<rect x="125.3" y="-301.7" class="st7" width="380" height="40"/>
<text transform="matrix(1 0 0 1 189.9939 -279.0706)" class="st8" style="font-family:'BCAlphapipeRB-Regular'; font-size:32px;">Buffle Disc Golf</text>
<path class="st2" d="M175.9-103.6c-20.1-7.2-33.4-16.3-36.1-26.3c-2.8-10.4,6.1-20.3,23.9-28.8c0,2.9-0.2,5.9-0.7,8.7
	c1.5-2.6,2.9-5.5,4.1-8.8c0.2-0.6,0.4-1.1,0.6-1.7c2.6-1.1,5.4-2.2,8.3-3.3c-1,4-1.7,7.9-2.3,11.7c1.7-4.7,3.6-9,5.7-12.9
	c15.1-5.1,33.8-9.4,55.2-12.5c-3.1,7-3.9,8.5-5.1,14c0.5-1,6.2-9.4,9.3-14.6c23.2-3.1,49.1-4.9,76.5-4.9c1.2,0,5.8,0,7,0
	c-1.5,2-5.2,7.2-5.2,7.2s4.1-3.8,10.4-7.1c34.7,0.7,66.3,4.1,92.3,9.6c-4,5.8-4.8,8.5-4.8,8.5s4.8-3.9,8.3-7.8
	c45,10,70.7,25.7,65.5,42.6c-4.9,16-36.7,29.4-80.4,37.3c-1.9-3-3.7-6.3-5.6-9.8c-0.4-0.8-0.9-1.6-1.3-2.4c0.6,3.9,1.8,8.3,3.6,12.9
	c-24,4.1-51.7,6.7-81.3,7.2c-6.1-5.8-13-13.8-19.7-23.7c-0.6-0.8-1.1-1.7-1.7-2.5c1.7,6.5,5.4,14.2,10.4,21.5
	c1.2,1.7,2.4,3.2,3.6,4.7c-1,0-2,0-3,0c-23.3,0-45.5-1.3-65.8-3.6c-3.5-3.9-7.2-8.2-11-12.8c-0.7-0.8-1.3-1.6-2-2.4
	c2.2,4.4,5.4,9.5,9.3,14.8c-19.2-2.3-36.7-5.6-51.6-9.7c-3.2-3.1-6.5-6.7-9.7-10.8c1.9,3.2,4,6.5,6.2,9.8c-3-0.9-5.9-1.8-8.6-2.7
	c-0.4-0.5-0.8-1-1.2-1.4c-2.3-2.7-4.7-5.2-7.2-7.5C173.4-108.6,174.8-106.1,175.9-103.6z M302.9-132.5c-103.2,0-186.1-1.3-186.1,2.6
	c0.1,3.8,83.7,2.6,186.1,2.6s185.6-1.1,186.1-2.6S406-132.5,302.9-132.5z M139.9-129.9c-0.2-0.9-0.4-1.7-0.4-2.6
	c-12.9,0-23,1.2-22.6,2.6c0.4,1.4,11.1,2.5,24,2.6C140.4-128.2,140.1-129,139.9-129.9z"/>
<g>
	<path class="st8" d="M192.6-156.1c0-0.7,0.6-1.3,1.3-1.3h5.3c3.6,0,6.3,2.7,6.3,6c0,2-1.1,4.1-3.4,5c2.5,0.9,3.7,3,3.7,5.3
		c0,3.4-2.7,6.1-6.4,6.1H194c-0.7,0-1.3-0.6-1.3-1.4L192.6-156.1L192.6-156.1z M199.1-137.6c2.4,0,4-1.7,4-3.8s-1.7-3.8-3.7-3.8H198
		c-0.7,0-1.2-0.5-1.2-1.2s0.5-1.3,1.2-1.3h1.1c2,0,3.6-1.6,3.6-3.6c0-2.1-1.5-3.6-3.8-3.6h-3.5v17.3L199.1-137.6L199.1-137.6
		L199.1-137.6z"/>
	<path class="st8" d="M211.1-150.4c0-0.7,0.5-1.3,1.3-1.3c0.7,0,1.3,0.6,1.3,1.3v8.3c0,3.3,2,5,4.4,5c2.5,0,4.5-1.7,4.5-5v-8.3
		c0-0.7,0.5-1.3,1.3-1.3c0.7,0,1.3,0.6,1.3,1.3v8.2c0,4.6-3.1,7.4-7,7.4s-7-2.8-7-7.4v-8.2H211.1z"/>
	<path class="st8" d="M232.1-151.4c0.3-3.9,3-6.3,6.8-6.3c0.7,0,1.2,0.5,1.2,1.2s-0.5,1.2-1.2,1.2c-2.4,0-3.9,1.4-4.2,4h4.2
		c0.7,0,1.2,0.5,1.2,1.2c0,0.6-0.5,1.2-1.2,1.2h-4.2v12.9c0,0.7-0.6,1.3-1.3,1.3s-1.3-0.6-1.3-1.3v-13h-1.7c-0.7,0-1.2-0.5-1.2-1.2
		s0.5-1.2,1.2-1.2L232.1-151.4L232.1-151.4z"/>
	<path class="st8" d="M246.1-151.4c0.3-3.9,3-6.3,6.8-6.3c0.7,0,1.2,0.5,1.2,1.2s-0.5,1.2-1.2,1.2c-2.4,0-3.9,1.4-4.2,4h4.2
		c0.7,0,1.2,0.5,1.2,1.2c0,0.6-0.5,1.2-1.2,1.2h-4.2v12.9c0,0.7-0.6,1.3-1.3,1.3s-1.3-0.6-1.3-1.3v-13h-1.7c-0.7,0-1.2-0.5-1.2-1.2
		s0.5-1.2,1.2-1.2L246.1-151.4L246.1-151.4z"/>
	<path class="st8" d="M258.7-156.4c0-0.7,0.5-1.3,1.3-1.3c0.7,0,1.3,0.6,1.3,1.3v20.3c0,0.7-0.6,1.3-1.3,1.3c-0.7,0-1.3-0.6-1.3-1.3
		V-156.4z"/>
	<path class="st8" d="M266.5-143.2c0-4.7,3.6-8.5,8.5-8.5c2.3,0,4.3,0.9,5.5,2.1c0.3,0.3,0.5,0.6,0.5,1c0,0.3-0.1,0.6-0.4,1
		l-5.7,6.8c-0.3,0.3-0.5,0.4-0.9,0.4c-0.7,0-1.2-0.5-1.2-1.1c0-0.3,0.1-0.6,0.3-0.8l5-5.9c-0.8-0.7-2-1-3.1-1
		c-3.3,0-5.9,2.7-5.9,6.1c0,3.4,2.6,6.1,5.9,6.1c1.8,0,3.3-0.8,4.2-1.9c0.4-0.3,0.6-0.6,1.1-0.6c0.7,0,1.3,0.5,1.3,1.2
		c0,0.3-0.2,0.6-0.4,0.9c-1.3,1.6-3.5,2.8-6.2,2.8C270.2-134.8,266.5-138.5,266.5-143.2z"/>
	<path class="st8" d="M296.3-156.1c0-0.7,0.6-1.3,1.3-1.3h6.4c6.8,0,11.5,5,11.5,11.2S310.9-135,304-135h-6.4
		c-0.7,0-1.3-0.6-1.3-1.4L296.3-156.1L296.3-156.1z M304-137.6c5.2,0,8.7-3.8,8.7-8.7s-3.4-8.7-8.7-8.7h-5v17.3L304-137.6L304-137.6
		z"/>
	<path class="st8" d="M320.4-155.4c0-0.9,0.7-1.6,1.6-1.6s1.6,0.7,1.6,1.6c0,0.9-0.7,1.6-1.6,1.6
		C321.1-153.8,320.4-154.5,320.4-155.4z M320.7-150.4c0-0.7,0.5-1.3,1.3-1.3c0.7,0,1.3,0.6,1.3,1.3v14.2c0,0.7-0.6,1.3-1.3,1.3
		c-0.7,0-1.3-0.6-1.3-1.3V-150.4z"/>
	<path class="st8" d="M329.6-139.9c0.4,0,0.9,0.3,1.1,0.8c0.3,0.9,1.1,2.1,2.9,2.1c1.5,0,2.5-1.1,2.5-2.3c0-1.6-1.3-2.3-3-2.9
		c-2.2-0.7-4.5-1.6-4.5-4.8c0-2.6,2.1-4.6,4.9-4.6c2.7,0,5,1.7,5,3.8c0,0.6-0.5,1.1-1.1,1.1c-0.4,0-0.9-0.2-1.1-0.9
		c-0.2-0.8-1.2-1.8-2.7-1.8c-1.6,0-2.5,1.1-2.5,2.4c0,1.7,1.5,2.3,3.4,2.9c2,0.6,4.1,1.7,4.1,4.7c0,2.5-2.2,4.7-5.1,4.7
		c-2.8,0-5.1-1.9-5.1-4C328.4-139.4,329-139.9,329.6-139.9z"/>
	<path class="st8" d="M343.1-143.2c0-4.7,3.6-8.5,8.5-8.5c2.7,0,4.9,1.1,6.2,2.8c0.2,0.3,0.4,0.6,0.4,0.9c0,0.7-0.5,1.2-1.3,1.2
		c-0.5,0-0.7-0.3-1.1-0.5c-1-1.1-2.4-1.9-4.2-1.9c-3.3,0-5.9,2.7-5.9,6.1c0,3.4,2.6,6.1,5.9,6.1c1.8,0,3.3-0.8,4.2-1.9
		c0.3-0.3,0.6-0.6,1.1-0.6c0.7,0,1.3,0.5,1.3,1.2c0,0.3-0.2,0.6-0.4,0.9c-1.3,1.6-3.5,2.8-6.2,2.8
		C346.7-134.8,343.1-138.5,343.1-143.2z"/>
	<path class="st8" d="M372.2-146.3c0-6.4,5-11.5,11.4-11.5c3.6,0,6.7,1.6,8.7,4c0.3,0.3,0.4,0.6,0.4,1c0,0.7-0.6,1.3-1.4,1.3
		c-0.4,0-0.8-0.2-1.1-0.5c-1.5-1.9-3.8-3.2-6.6-3.2c-4.8,0-8.6,3.9-8.6,8.9s3.8,8.9,8.6,8.9c4.2,0,7.5-3,8.3-7h-6.4
		c-0.7,0-1.2-0.5-1.2-1.2s0.5-1.3,1.2-1.3h8.2c0.7,0,1.2,0.6,1.2,1.3c-0.2,5.5-4.9,10.8-11.3,10.8
		C377.3-134.8,372.2-139.8,372.2-146.3z"/>
	<path class="st8" d="M399.2-143.2c0-4.7,3.6-8.5,8.5-8.5c4.8,0,8.4,3.7,8.4,8.5c0,4.7-3.6,8.5-8.4,8.5S399.2-138.5,399.2-143.2z
		 M413.5-143.2c0-3.4-2.5-6.1-5.8-6.1s-5.9,2.7-5.9,6.1c0,3.4,2.6,6.1,5.9,6.1C410.9-137.1,413.5-139.9,413.5-143.2z"/>
	<path class="st8" d="M421.3-156.4c0-0.7,0.5-1.3,1.3-1.3c0.7,0,1.3,0.6,1.3,1.3v20.3c0,0.7-0.6,1.3-1.3,1.3c-0.7,0-1.3-0.6-1.3-1.3
		V-156.4z"/>
	<path class="st8" d="M431.4-151.4c0.3-3.9,3-6.3,6.8-6.3c0.7,0,1.2,0.5,1.2,1.2s-0.5,1.2-1.2,1.2c-2.4,0-3.9,1.4-4.2,4h4.2
		c0.7,0,1.2,0.5,1.2,1.2c0,0.6-0.5,1.2-1.2,1.2H434v12.9c0,0.7-0.6,1.3-1.3,1.3c-0.7,0-1.3-0.6-1.3-1.3v-13h-1.7
		c-0.7,0-1.2-0.5-1.2-1.2s0.5-1.2,1.2-1.2L431.4-151.4L431.4-151.4z"/>
</g>
<path class="st2" d="M152-426.8c-20.8-7.3-32.9-16.1-32.9-25.5c0-9.5,12.2-18.3,32.9-25.5c-0.7,2.5-1.6,5-2.7,7.5
	c2.2-2.2,4.3-4.8,6.3-7.5c0.3-0.5,0.7-1,1-1.5c2.9-0.9,6-1.9,9.3-2.7c-1.8,3.4-3.4,6.7-4.8,9.9c2.8-4,5.6-7.7,8.6-10.9
	c16.4-4.2,36.1-7.7,58.1-10.2c-3.9,5.6-4.9,6.9-6.8,11.4c0.6-0.8,7.4-7.8,11.1-11.9c23.5-2.5,49.6-3.9,77-3.9c1.2,0,5.8,0,7,0
	c-1.5,1.6-5,5.8-5,5.8s4-3,10.2-5.7c34.7,0.5,66.9,3.3,94.1,7.7c-3,4.8-3.3,7-3.3,7s4.2-3.2,7-6.4c48.4,8.2,79.9,21.7,79.9,37
	s-31.6,28.8-79.9,37c-2.8-3.2-5.6-6.6-8.4-10.2c-0.6-0.8-1.3-1.7-1.9-2.5c1.4,4,3.7,8.5,6.7,13.3c-27.2,4.4-59.4,7.1-94.1,7.7
	c-7.4-6.2-15.5-14.7-23.3-24.6c-0.6-0.8-1.3-1.7-1.9-2.5c2,6.5,6.2,14.4,12.2,22.1c1.4,1.8,2.8,3.5,4.3,5.1c-1.1,0-2.3,0-3.5,0
	c-27.4,0-53.4-1.4-77-3.9c-3.7-4.1-7.4-8.6-11.2-13.5c-0.6-0.8-1.3-1.7-1.9-2.5c1.9,4.5,4.9,9.9,8.8,15.5c-22-2.5-41.7-6-58.1-10.2
	c-3-3.2-5.9-6.9-8.6-10.9c1.4,3.2,3,6.6,4.8,9.9c-3.2-0.9-6.3-1.8-9.3-2.7c-0.3-0.5-0.6-1-1-1.5c-1.9-2.8-4-5.3-6.3-7.5
	C150.4-431.8,151.3-429.3,152-426.8z M296.4-454.7c-111.8,0-201.2-1.2-202.4,2.4s90.6,2.4,202.4,2.4s202.4-1.1,202.4-2.4
	S408.2-454.7,296.4-454.7z M119-452.3c0-0.8,0.1-1.6,0.3-2.4c-14,0-25.3,1.1-25.3,2.4s11.3,2.4,25.3,2.4
	C119.1-450.7,119-451.5,119-452.3z"/>
<rect x="118.9" y="-480" class="st7" width="380" height="40"/>
<text transform="matrix(1 0 0 1 183.5125 -457.2927)" class="st8" style="font-family:'BCAlphapipeRB-Regular'; font-size:32px;">Buffle Disc Golf</text>
<rect x="-2.5" y="450.5" class="st0" width="119" height="119"/>
<rect x="161.5" y="450.5" class="st1" width="119" height="119"/>
<rect x="325.5" y="450.5" class="st2" width="119" height="119"/>
<rect x="492.5" y="450.5" class="st3" width="119" height="119"/>
<path class="st1" d="M317.7,231.3c-4.5,12.9-10,20.5-16,20.5c-5.9,0-11.4-7.6-16-20.5c1.5,0.4,3.2,1,4.7,1.7c-1.4-1.4-3-2.8-4.7-3.9
	c-0.3-0.3-0.6-0.4-1-0.6c-0.6-1.8-1.1-3.7-1.7-5.8c2.1,1.1,4.1,2.2,6.2,3c-2.5-1.7-4.8-3.6-6.7-5.4c-2.6-10.2-4.8-22.6-6.3-36.2
	c3.4,2.5,6.9,4.3,9.6,5.5c-0.6-0.4-1.1-0.8-1.5-1.2c-3-2.3-5.8-4.7-8.4-7c-1.5-14.7-2.5-31-2.5-48c0-0.7,0-1.4,0-2.2
	c1,1,2.1,1.8,3.2,2.6c4.8,3.7,9.8,6.3,13.8,7.6c-0.6-0.4-1.1-0.8-1.5-1.2c-6.2-4.8-11.6-9.9-15.4-14.4c0.3-21.6,2.1-41.7,4.8-58.6
	c3,1.9,5.8,3.3,8.3,4.1c-0.6-0.4-1.1-0.8-1.5-1.2c-2.2-1.8-4.4-3.6-6.3-5.2c5.1-30.1,13.6-49.8,23.1-49.8c9.5,0,17.9,19.7,23.1,49.8
	c-1.9,1.8-4.1,3.6-6.3,5.2c-0.6,0.4-1.1,0.8-1.5,1.2c2.5-0.8,5.4-2.3,8.3-4.1c2.8,16.9,4.4,37,4.8,58.6c-3.9,4.5-9.2,9.6-15.4,14.4
	c-0.6,0.4-1.1,0.8-1.5,1.2c4.1-1.2,8.9-3.9,13.8-7.6c1.1-0.8,2.2-1.8,3.2-2.6c0,0.7,0,1.4,0,2.2c0,17.1-0.8,33.3-2.5,48
	c-2.6,2.3-5.4,4.7-8.4,7c-0.6,0.4-1.1,0.8-1.5,1.2c2.8-1.2,6.2-3,9.6-5.5c-1.5,13.8-3.7,26-6.3,36.2c-2.1,1.8-4.3,3.7-6.7,5.4
	c2.1-0.8,4.1-1.9,6.2-3c-0.6,2.1-1.1,4-1.7,5.8c-0.3,0.1-0.6,0.4-1,0.6c-1.8,1.2-3.3,2.5-4.7,3.9
	C314.5,232.2,316.1,231.7,317.7,231.3z M300.2,141.3c0,69.7-0.7,125.5,1.5,126.2s1.5-56.5,1.5-126.2s-0.7-126.2-1.5-126.2
	S300.2,71.5,300.2,141.3z M301.7,251.8c-0.6,0-1,0-1.5-0.1c0,8.8,0.7,15.8,1.5,15.8s1.5-7,1.5-15.8
	C302.7,251.8,302.3,251.8,301.7,251.8z"/>
<rect x="74.5" y="287.4" class="st7" width="454.7" height="49"/>
<g class="st9">
	<path class="st8" d="M233.4,290.6c0-1.6,1.3-2.9,2.9-2.9h8.8c5.5,0,9.8,4.3,9.8,9.6c0,3-1.4,6.1-5,7.4c3.8,1.3,5.4,4.7,5.4,7.9
		c0,5.3-4.3,9.7-9.9,9.7h-9.2c-1.6,0-2.9-1.3-2.9-2.9V290.6z M244.7,317c2.8,0,4.8-2,4.8-4.7c0-2.6-2.1-4.7-4.7-4.7h-1.2
		c-1.5,0-2.7-1.2-2.7-2.7c0-1.5,1.2-2.7,2.7-2.7h0.8c2.5,0,4.6-2,4.6-4.6c0-2.5-1.9-4.6-4.7-4.6h-5V317H244.7z"/>
	<path class="st8" d="M262.1,299.5c0-1.5,1.2-2.7,2.7-2.7s2.7,1.2,2.7,2.7v12.1c0,4.2,2.5,6.3,5.7,6.3s5.7-2.2,5.7-6.3v-12.1
		c0-1.5,1.2-2.7,2.7-2.7c1.5,0,2.7,1.2,2.7,2.7v11.9c0,7.1-4.9,11.6-11.1,11.6c-6.2,0-11.1-4.5-11.1-11.6V299.5z"/>
	<path class="st8" d="M293.2,297.2c0.7-6.1,5.3-9.9,11.1-9.9c1.4,0,2.5,1.1,2.5,2.5s-1.1,2.5-2.5,2.5c-2.9,0-5.1,1.6-5.6,4.8h5.6
		c1.4,0,2.5,1.1,2.5,2.5c0,1.4-1.1,2.5-2.5,2.5h-5.8v17.9c0,1.5-1.2,2.8-2.7,2.8c-1.5,0-2.7-1.2-2.7-2.8v-17.9h-1.8
		c-1.4,0-2.5-1.1-2.5-2.5c0-1.4,1.1-2.5,2.5-2.5H293.2z"/>
	<path class="st8" d="M315.2,297.2c0.7-6.1,5.3-9.9,11.1-9.9c1.4,0,2.5,1.1,2.5,2.5s-1.1,2.5-2.5,2.5c-2.9,0-5.1,1.6-5.6,4.8h5.6
		c1.4,0,2.5,1.1,2.5,2.5c0,1.4-1.1,2.5-2.5,2.5h-5.8v17.9c0,1.5-1.2,2.8-2.7,2.8c-1.5,0-2.7-1.2-2.7-2.8v-17.9h-1.8
		c-1.4,0-2.5-1.1-2.5-2.5c0-1.4,1.1-2.5,2.5-2.5H315.2z"/>
	<path class="st8" d="M334.8,290.1c0-1.5,1.2-2.7,2.7-2.7c1.5,0,2.7,1.2,2.7,2.7v30.1c0,1.5-1.2,2.8-2.7,2.8c-1.5,0-2.7-1.2-2.7-2.8
		V290.1z"/>
	<path class="st8" d="M346.9,309.8c0-7.3,5.6-13.1,13.1-13.1c3.9,0,6.9,1.5,8.6,3.1c0.6,0.5,1,1.3,1,2.1c0,0.7-0.2,1.3-0.8,2
		l-7.6,9.1c-0.5,0.6-1.1,0.9-1.9,0.9c-1.5,0-2.6-1-2.6-2.5c0-0.6,0.1-1.2,0.6-1.6l6-7c-0.8-0.6-2.2-0.9-3.3-0.9
		c-4.3,0-7.6,3.6-7.6,8.1c0,4.5,3.3,8.1,7.6,8.1c2.3,0,4.1-1,5.3-2.2c0.8-0.6,1.3-1.2,2.4-1.2c1.5,0,2.7,1.1,2.7,2.6
		c0,0.5-0.3,1.2-0.8,1.8c-1.9,2.3-5.3,4.1-9.5,4.1C352.6,322.9,346.9,317.1,346.9,309.8z"/>
</g>
<rect x="132.4" y="343.2" class="st7" width="339" height="48.2"/>
<g class="st9">
	<path class="st8" d="M205.2,346.2c0-1.4,1.2-2.6,2.6-2.6h8.2c9.4,0,15.8,6.8,15.8,15.4c0,8.6-6.4,15.4-15.8,15.4h-8.1
		c-1.4,0-2.6-1.2-2.6-2.6V346.2z M216,369.6c6.4,0,10.5-4.7,10.5-10.6c0-5.9-4-10.6-10.5-10.6h-5.6v21.2H216z"/>
	<path class="st8" d="M237.4,346.2c0-1.6,1.3-2.9,2.9-2.9c1.6,0,2.9,1.3,2.9,2.9c0,1.5-1.3,2.9-2.9,2.9
		C238.7,349.1,237.4,347.7,237.4,346.2z M237.8,354c0-1.4,1.1-2.4,2.4-2.4c1.4,0,2.4,1.1,2.4,2.4v18.4c0,1.4-1.1,2.5-2.4,2.5
		c-1.4,0-2.4-1.1-2.4-2.5V354z"/>
	<path class="st8" d="M251,367.4c0.7,0,1.3,0.3,1.7,0.9c0.7,1,1.6,2.3,3.5,2.3c1.5,0,2.5-1.1,2.5-2.4c0-1.8-1.7-2.5-3.7-3.2
		c-2.8-1-5.9-2.2-5.9-6.7c0-3.7,3.1-6.7,7.1-6.7c3.7,0,7.2,2.3,7.2,5.1c0,1.2-1,2.2-2.2,2.2c-0.5,0-1.1-0.2-1.4-0.8
		c-0.7-0.8-1.8-2.1-3.5-2.1c-1.5,0-2.5,1.1-2.5,2.4c0,1.8,1.8,2.4,4.1,3.1c2.7,0.8,5.7,2.2,5.7,6.6c0,3.7-3.2,6.9-7.4,6.9
		c-3.9,0-7.4-2.6-7.4-5.3C248.8,368.4,249.7,367.4,251,367.4z"/>
	<path class="st8" d="M268.6,363.2c0-6.5,5-11.7,11.7-11.7c3.7,0,6.8,1.6,8.5,3.6c0.4,0.5,0.7,1.1,0.7,1.7c0,1.3-1,2.2-2.4,2.2
		c-1,0-1.5-0.5-2.1-1c-1.1-1.1-2.6-2-4.7-2c-3.8,0-6.8,3.2-6.8,7.2c0,4,3,7.2,6.8,7.2c2,0,3.6-0.9,4.7-2c0.6-0.5,1.1-1.1,2.1-1.1
		c1.4,0,2.4,1,2.4,2.3c0,0.5-0.3,1.1-0.7,1.6c-1.7,2-4.7,3.7-8.5,3.7C273.5,374.9,268.6,369.8,268.6,363.2z"/>
	<path class="st8" d="M306.8,359.1c0-8.8,7-15.8,15.8-15.8c4.8,0,8.9,2.1,11.6,5.1c0.5,0.5,0.7,1.2,0.7,1.8c0,1.4-1.1,2.6-2.6,2.6
		c-0.7,0-1.4-0.4-2.1-1c-1.8-2.1-4.5-3.4-7.7-3.4c-5.8,0-10.4,4.8-10.4,10.9c0,6,4.6,10.8,10.4,10.8c4.6,0,8.5-3,9.9-7.6h-7.5
		c-1.4,0-2.4-1.1-2.4-2.4c0-1.4,1.1-2.4,2.4-2.4h11c1.3,0,2.4,1.1,2.4,2.6c-0.2,7.3-6.6,14.8-15.7,14.8
		C313.7,374.9,306.8,367.9,306.8,359.1z"/>
	<path class="st8" d="M342.9,363.2c0-6.5,5-11.7,11.7-11.7c6.7,0,11.7,5.2,11.7,11.7c0,6.5-4.9,11.7-11.7,11.7
		C347.9,374.9,342.9,369.8,342.9,363.2z M361.4,363.2c0-4-2.9-7.2-6.8-7.2s-6.8,3.2-6.8,7.2c0,3.9,2.9,7.2,6.8,7.2
		S361.4,367.2,361.4,363.2z"/>
	<path class="st8" d="M372.3,345.7c0-1.4,1.1-2.4,2.4-2.4c1.4,0,2.4,1.1,2.4,2.4v26.7c0,1.4-1.1,2.5-2.4,2.5c-1.4,0-2.4-1.1-2.4-2.5
		V345.7z"/>
	<path class="st8" d="M386.5,352c0.7-5.4,4.7-8.8,9.9-8.8c1.2,0,2.2,1,2.2,2.2c0,1.2-1,2.2-2.2,2.2c-2.6,0-4.5,1.5-5,4.3h5
		c1.2,0,2.2,1,2.2,2.2c0,1.2-1,2.2-2.2,2.2h-5.2v15.9c0,1.4-1.1,2.5-2.4,2.5c-1.4,0-2.4-1.1-2.4-2.5v-15.9h-1.6
		c-1.3,0-2.2-1-2.2-2.2c0-1.3,1-2.2,2.2-2.2H386.5z"/>
</g>
</svg>
