<?xml version="1.0" encoding="utf-8"?>
<!-- Generator: Adobe Illustrator 25.2.0, SVG Export Plug-In . SVG Version: 6.00 Build 0)  -->
<svg version="1.1" id="Layer_5" xmlns="http://www.w3.org/2000/svg" xmlns:xlink="http://www.w3.org/1999/xlink" x="0px" y="0px"
	 viewBox="0 0 605.95 211" style="enable-background:new 0 0 605.95 211;" xml:space="preserve">
<style type="text/css">
	.st0{fill:#12151F;}
	.st1{fill:#05F4B7;}
	.st2{fill:#371BB1;}
	.st3{fill:#CF0091;}
	.st4{fill:none;stroke:#12151F;stroke-miterlimit:10;}
	.st5{fill:none;stroke:#05F4B7;stroke-miterlimit:10;}
	.st6{fill:none;stroke:#371BB1;stroke-miterlimit:10;}
	.st7{fill:none;}
	.st8{fill:#FFFFFF;}
</style>
<rect x="-694.03" y="-190" class="st0" width="119" height="119"/>
<rect x="-530.03" y="-190" class="st1" width="119" height="119"/>
<rect x="-366.03" y="-190" class="st2" width="119" height="119"/>
<rect x="-199.03" y="-190" class="st3" width="119" height="119"/>
<rect x="-694.03" y="-358" class="st4" width="119" height="119"/>
<rect x="-530.03" y="-358" class="st5" width="119" height="119"/>
<rect x="-366.03" y="-358" class="st6" width="119" height="119"/>
<path class="st0" d="M-851.63-137.59c-6.1,17.41-13.46,27.59-21.4,27.59s-15.3-10.18-21.4-27.59c2.1,0.59,4.2,1.34,6.25,2.28
	c-1.87-1.86-3.98-3.63-6.3-5.25c-0.41-0.28-0.82-0.56-1.23-0.82c-0.79-2.46-1.56-5.05-2.3-7.75c2.8,1.53,5.58,2.87,8.3,4.04
	c-3.38-2.3-6.45-4.73-9.14-7.22c-3.54-13.71-6.45-30.21-8.55-48.66c4.7,3.26,9.19,5.79,12.96,7.38c-0.69-0.53-1.39-1.06-2.09-1.6
	c-4.03-3.14-7.81-6.29-11.27-9.36c-2.09-19.7-3.25-41.51-3.25-64.45c0-0.97,0-1.94,0.01-2.9c1.34,1.21,2.77,2.41,4.27,3.58
	c6.45,5.02,13.07,8.55,18.53,10.18c-0.7-0.52-1.39-1.06-2.09-1.6c-8.35-6.5-15.44-13.29-20.64-19.48
	c0.44-29.08,2.75-56.03,6.43-78.78c3.99,2.5,7.81,4.41,11.14,5.59c-0.69-0.53-1.39-1.06-2.09-1.6c-3.01-2.35-5.87-4.71-8.54-7.06
	c6.9-40.51,18.21-66.93,31-66.93s24.1,26.42,30.98,66.93c-2.68,2.35-5.53,4.72-8.54,7.06c-0.7,0.54-1.39,1.08-2.09,1.6
	c3.33-1.18,7.15-3.09,11.14-5.59c3.68,22.75,5.99,49.71,6.43,78.78c-5.19,6.19-12.29,12.98-20.64,19.48
	c-0.7,0.54-1.39,1.07-2.09,1.6c5.46-1.64,12.08-5.16,18.53-10.18c1.5-1.17,2.93-2.37,4.27-3.58c0,0.97,0.01,1.93,0.01,2.9
	c0,22.95-1.16,44.75-3.25,64.45c-3.46,3.07-7.24,6.22-11.27,9.36c-0.7,0.54-1.39,1.08-2.09,1.6c3.77-1.59,8.26-4.13,12.96-7.38
	c-2.09,18.45-5.01,34.94-8.55,48.66c-2.69,2.48-5.76,4.92-9.14,7.22c2.71-1.16,5.49-2.51,8.3-4.04c-0.74,2.7-1.51,5.29-2.3,7.75
	c-0.41,0.27-0.82,0.54-1.23,0.82c-2.32,1.62-4.42,3.38-6.3,5.25C-855.83-136.25-853.74-137-851.63-137.59z M-875.03-258.5
	c0,93.61-1,168.5,2,169.5s2-75.89,2-169.5s-0.9-169.5-2-169.5S-875.03-352.11-875.03-258.5z M-873.03-110c-0.67,0-1.34-0.08-2-0.22
	c0.01,11.74,0.9,21.22,2,21.22s1.98-9.48,2-21.22C-871.69-110.08-872.36-110-873.03-110z"/>
<path class="st2" d="M175.92-247.6c-20.1-7.25-33.36-16.26-36.07-26.29c-2.8-10.37,6.06-20.32,23.95-28.8
	c-0.02,2.95-0.24,5.87-0.68,8.7c1.54-2.58,2.92-5.5,4.07-8.76c0.2-0.57,0.39-1.15,0.58-1.73c2.6-1.12,5.37-2.21,8.29-3.27
	c-0.97,3.99-1.72,7.9-2.27,11.67c1.67-4.71,3.6-9.03,5.72-12.88c15.06-5.13,33.78-9.42,55.2-12.53c-3.09,6.96-3.89,8.54-5.13,13.98
	c0.5-0.99,6.2-9.43,9.31-14.57c23.16-3.15,49.09-4.91,76.5-4.91c1.16,0,5.8,0.01,6.95,0.01c-1.51,2.03-5.16,7.25-5.16,7.25
	s4.06-3.76,10.4-7.14c34.66,0.67,66.33,4.15,92.33,9.63c-3.98,5.83-4.79,8.53-4.79,8.53s4.79-3.86,8.27-7.78
	c45,9.99,70.72,25.73,65.51,42.61c-4.93,15.99-36.67,29.44-80.43,37.34c-1.87-3.04-3.73-6.32-5.56-9.83
	c-0.43-0.82-0.85-1.63-1.26-2.45c0.57,3.91,1.78,8.32,3.56,12.86c-23.98,4.12-51.74,6.67-81.31,7.16
	c-6.13-5.77-12.98-13.85-19.73-23.66c-0.57-0.83-1.14-1.67-1.69-2.51c1.72,6.51,5.37,14.21,10.44,21.51
	c1.17,1.68,2.36,3.25,3.56,4.73c-0.98,0-1.96,0.01-2.95,0.01c-23.3,0-45.52-1.28-65.8-3.6c-3.54-3.88-7.25-8.18-11.04-12.84
	c-0.66-0.81-1.32-1.63-1.97-2.44c2.18,4.4,5.39,9.54,9.31,14.84c-19.19-2.34-36.69-5.64-51.64-9.7c-3.2-3.12-6.48-6.72-9.73-10.75
	c1.89,3.23,3.97,6.51,6.22,9.77c-2.99-0.86-5.88-1.75-8.65-2.67c-0.38-0.48-0.77-0.96-1.17-1.44c-2.29-2.74-4.71-5.25-7.19-7.5
	C173.4-252.57,174.76-250.08,175.92-247.6z M302.85-276.47c-103.19,0-186.14-1.3-186.05,2.58c0.09,3.83,83.73,2.56,186.05,2.56
	s185.61-1.14,186.05-2.56S406.05-276.47,302.85-276.47z M139.85-273.89c-0.23-0.86-0.38-1.72-0.45-2.58
	c-12.94,0.02-23.03,1.17-22.6,2.58c0.43,1.4,11.14,2.54,23.98,2.56C140.4-272.17,140.09-273.03,139.85-273.89z"/>
<rect x="125.35" y="-301.73" class="st7" width="380" height="40"/>
<text transform="matrix(1 0 0 1 189.9939 -279.0706)" class="st8" style="font-family:'BCAlphapipeRB-Regular'; font-size:32px;">Buffle Disc Golf</text>
<path class="st2" d="M175.92-103.6c-20.1-7.25-33.36-16.26-36.07-26.29c-2.8-10.37,6.06-20.32,23.95-28.8
	c-0.02,2.95-0.24,5.87-0.68,8.7c1.54-2.58,2.92-5.5,4.07-8.76c0.2-0.57,0.39-1.15,0.58-1.73c2.6-1.12,5.37-2.21,8.29-3.27
	c-0.97,3.99-1.72,7.9-2.27,11.67c1.67-4.71,3.6-9.03,5.72-12.88c15.06-5.13,33.78-9.42,55.2-12.53c-3.09,6.96-3.89,8.54-5.13,13.98
	c0.5-0.99,6.2-9.43,9.31-14.57c23.16-3.15,49.09-4.91,76.5-4.91c1.16,0,5.8,0.01,6.95,0.01c-1.51,2.03-5.16,7.25-5.16,7.25
	s4.06-3.76,10.4-7.14c34.66,0.67,66.33,4.15,92.33,9.63c-3.98,5.83-4.79,8.53-4.79,8.53s4.79-3.86,8.27-7.78
	c45,9.99,70.72,25.73,65.51,42.61c-4.93,15.99-36.67,29.44-80.43,37.34c-1.87-3.04-3.73-6.32-5.56-9.83
	c-0.43-0.82-0.85-1.63-1.26-2.45c0.57,3.91,1.78,8.32,3.56,12.86c-23.98,4.12-51.74,6.67-81.31,7.16
	c-6.13-5.77-12.98-13.85-19.73-23.66c-0.57-0.83-1.14-1.67-1.69-2.51c1.72,6.51,5.37,14.21,10.44,21.51
	c1.17,1.68,2.36,3.25,3.56,4.73c-0.98,0-1.96,0.01-2.95,0.01c-23.3,0-45.52-1.28-65.8-3.6c-3.54-3.88-7.25-8.18-11.04-12.84
	c-0.66-0.81-1.32-1.63-1.97-2.44c2.18,4.4,5.39,9.54,9.31,14.84c-19.19-2.34-36.69-5.64-51.64-9.7c-3.2-3.12-6.48-6.72-9.73-10.75
	c1.89,3.23,3.97,6.51,6.22,9.77c-2.99-0.86-5.88-1.75-8.65-2.67c-0.38-0.48-0.77-0.96-1.17-1.44c-2.29-2.74-4.71-5.25-7.19-7.5
	C173.4-108.57,174.76-106.08,175.92-103.6z M302.85-132.47c-103.19,0-186.14-1.3-186.05,2.58c0.09,3.83,83.73,2.56,186.05,2.56
	s185.61-1.14,186.05-2.56S406.05-132.47,302.85-132.47z M139.85-129.89c-0.23-0.86-0.38-1.72-0.45-2.58
	c-12.94,0.02-23.03,1.17-22.6,2.58c0.43,1.4,11.14,2.54,23.98,2.56C140.4-128.17,140.09-129.03,139.85-129.89z"/>
<g>
	<path class="st8" d="M192.63-156.12c0-0.74,0.61-1.34,1.34-1.34h5.28c3.65,0,6.27,2.69,6.27,6.02c0,2.02-1.06,4.1-3.42,4.96
		c2.46,0.86,3.74,3.04,3.74,5.28c0,3.39-2.69,6.14-6.4,6.14h-5.47c-0.74,0-1.34-0.61-1.34-1.38V-156.12z M199.06-137.6
		c2.4,0,3.97-1.66,3.97-3.78c0-2.08-1.66-3.78-3.74-3.78h-1.25c-0.7,0-1.25-0.54-1.25-1.25s0.54-1.28,1.25-1.28h1.06
		c2.02,0,3.62-1.6,3.62-3.62c0-2.05-1.5-3.65-3.84-3.65h-3.52v17.34h3.7V-137.6z"/>
	<path class="st8" d="M211.06-150.37c0-0.7,0.54-1.28,1.28-1.28c0.7,0,1.28,0.58,1.28,1.28v8.29c0,3.26,1.98,4.96,4.45,4.96
		c2.5,0,4.48-1.7,4.48-4.96v-8.29c0-0.7,0.54-1.28,1.28-1.28c0.7,0,1.28,0.58,1.28,1.28v8.19c0,4.64-3.1,7.42-7.04,7.42
		c-3.9,0-7.01-2.78-7.01-7.42V-150.37z"/>
	<path class="st8" d="M232.05-151.39c0.26-3.9,3.01-6.34,6.75-6.34c0.67,0,1.18,0.54,1.18,1.18c0,0.67-0.54,1.18-1.18,1.18
		c-2.37,0-3.94,1.41-4.16,3.97h4.16c0.67,0,1.18,0.51,1.18,1.18c0,0.64-0.51,1.18-1.18,1.18h-4.19v12.9c0,0.74-0.58,1.31-1.28,1.31
		c-0.74,0-1.28-0.58-1.28-1.31v-12.9h-1.7c-0.67,0-1.18-0.54-1.18-1.18c0-0.67,0.51-1.18,1.18-1.18h1.7V-151.39z"/>
	<path class="st8" d="M246.07-151.39c0.26-3.9,3.01-6.34,6.75-6.34c0.67,0,1.18,0.54,1.18,1.18c0,0.67-0.54,1.18-1.18,1.18
		c-2.37,0-3.94,1.41-4.16,3.97h4.16c0.67,0,1.18,0.51,1.18,1.18c0,0.64-0.51,1.18-1.18,1.18h-4.19v12.9c0,0.74-0.58,1.31-1.28,1.31
		c-0.74,0-1.28-0.58-1.28-1.31v-12.9h-1.7c-0.67,0-1.18-0.54-1.18-1.18c0-0.67,0.51-1.18,1.18-1.18h1.7V-151.39z"/>
	<path class="st8" d="M258.74-156.44c0-0.7,0.54-1.28,1.28-1.28c0.7,0,1.28,0.58,1.28,1.28v20.32c0,0.74-0.58,1.31-1.28,1.31
		c-0.74,0-1.28-0.58-1.28-1.31V-156.44z"/>
	<path class="st8" d="M266.48-143.23c0-4.74,3.65-8.48,8.45-8.48c2.33,0,4.29,0.9,5.54,2.05c0.29,0.26,0.48,0.61,0.48,0.99
		c0,0.32-0.1,0.61-0.42,0.96l-5.7,6.82c-0.26,0.29-0.54,0.42-0.9,0.42c-0.7,0-1.22-0.48-1.22-1.15c0-0.29,0.06-0.58,0.29-0.8
		l4.99-5.89c-0.83-0.7-2.02-1.02-3.07-1.02c-3.26,0-5.86,2.69-5.86,6.11c0,3.39,2.56,6.11,5.86,6.11c1.82,0,3.26-0.8,4.25-1.92
		c0.35-0.32,0.64-0.58,1.09-0.58c0.74,0,1.28,0.51,1.28,1.22c0,0.26-0.16,0.61-0.38,0.86c-1.34,1.6-3.55,2.78-6.24,2.78
		C270.16-134.75,266.48-138.49,266.48-143.23z"/>
	<path class="st8" d="M296.28-156.12c0-0.74,0.61-1.34,1.34-1.34h6.4c6.82,0,11.46,4.96,11.46,11.2s-4.64,11.2-11.49,11.2h-6.37
		c-0.74,0-1.34-0.61-1.34-1.38V-156.12z M304.02-137.6c5.25,0,8.67-3.84,8.67-8.67s-3.42-8.67-8.67-8.67H299v17.34H304.02z"/>
	<path class="st8" d="M320.37-155.36c0-0.9,0.7-1.6,1.6-1.6c0.86,0,1.6,0.7,1.6,1.6c0,0.86-0.74,1.6-1.6,1.6
		C321.07-153.76,320.37-154.49,320.37-155.36z M320.69-150.37c0-0.7,0.54-1.28,1.28-1.28c0.7,0,1.28,0.58,1.28,1.28v14.24
		c0,0.74-0.58,1.31-1.28,1.31c-0.74,0-1.28-0.58-1.28-1.31V-150.37z"/>
	<path class="st8" d="M329.59-139.87c0.42,0,0.93,0.26,1.09,0.77c0.29,0.9,1.12,2.05,2.85,2.05c1.54,0,2.53-1.12,2.53-2.34
		c0-1.6-1.28-2.34-2.98-2.91c-2.21-0.74-4.45-1.6-4.45-4.77c0-2.62,2.08-4.64,4.93-4.64c2.69,0,4.96,1.66,4.96,3.84
		c0,0.64-0.51,1.15-1.15,1.15c-0.35,0-0.93-0.16-1.12-0.9c-0.22-0.83-1.18-1.82-2.69-1.82c-1.57,0-2.46,1.12-2.46,2.37
		c0,1.7,1.54,2.27,3.42,2.88c2.02,0.61,4.1,1.73,4.1,4.74c0,2.53-2.18,4.7-5.09,4.7c-2.78,0-5.09-1.89-5.09-3.97
		C328.44-139.36,328.95-139.87,329.59-139.87z"/>
	<path class="st8" d="M343.09-143.23c0-4.74,3.65-8.48,8.45-8.48c2.66,0,4.9,1.15,6.24,2.75c0.22,0.26,0.38,0.61,0.38,0.9
		c0,0.7-0.54,1.18-1.28,1.18c-0.48,0-0.74-0.26-1.09-0.54c-0.99-1.12-2.43-1.92-4.25-1.92c-3.26,0-5.86,2.69-5.86,6.11
		c0,3.39,2.59,6.11,5.86,6.11c1.79,0,3.26-0.8,4.25-1.92c0.32-0.29,0.61-0.58,1.09-0.58c0.74,0,1.28,0.51,1.28,1.22
		c0,0.26-0.16,0.61-0.38,0.86c-1.34,1.6-3.55,2.78-6.24,2.78C346.74-134.75,343.09-138.49,343.09-143.23z"/>
	<path class="st8" d="M372.24-146.27c0-6.43,5.02-11.52,11.39-11.52c3.58,0,6.69,1.63,8.67,4.03c0.26,0.29,0.38,0.64,0.38,0.96
		c0,0.74-0.61,1.34-1.38,1.34c-0.35,0-0.77-0.22-1.09-0.54c-1.54-1.92-3.84-3.2-6.59-3.2c-4.8,0-8.58,3.94-8.58,8.93
		c0,4.96,3.78,8.9,8.58,8.9c4.19,0,7.52-3.01,8.29-7.01h-6.4c-0.7,0-1.25-0.54-1.25-1.25s0.54-1.28,1.25-1.28h8.19
		c0.7,0,1.25,0.58,1.25,1.34c-0.19,5.47-4.86,10.82-11.33,10.82C377.27-134.75,372.24-139.84,372.24-146.27z"/>
	<path class="st8" d="M399.18-143.23c0-4.74,3.65-8.48,8.45-8.48c4.8,0,8.42,3.74,8.42,8.48c0,4.74-3.62,8.48-8.42,8.48
		S399.18-138.49,399.18-143.23z M413.46-143.23c0-3.39-2.53-6.11-5.82-6.11c-3.3,0-5.86,2.72-5.86,6.11c0,3.36,2.56,6.11,5.86,6.11
		C410.93-137.12,413.46-139.87,413.46-143.23z"/>
	<path class="st8" d="M421.27-156.44c0-0.7,0.54-1.28,1.28-1.28c0.7,0,1.28,0.58,1.28,1.28v20.32c0,0.74-0.58,1.31-1.28,1.31
		c-0.74,0-1.28-0.58-1.28-1.31V-156.44z"/>
	<path class="st8" d="M431.35-151.39c0.26-3.9,3.01-6.34,6.75-6.34c0.67,0,1.18,0.54,1.18,1.18c0,0.67-0.54,1.18-1.18,1.18
		c-2.37,0-3.94,1.41-4.16,3.97h4.16c0.67,0,1.18,0.51,1.18,1.18c0,0.64-0.51,1.18-1.18,1.18h-4.19v12.9c0,0.74-0.58,1.31-1.28,1.31
		c-0.74,0-1.28-0.58-1.28-1.31v-12.9h-1.7c-0.67,0-1.18-0.54-1.18-1.18c0-0.67,0.51-1.18,1.18-1.18h1.7V-151.39z"/>
</g>
<path class="st1" d="M104.13,147.47c-31.44-11.34-52.18-25.43-56.42-41.12c-4.38-16.22,9.48-31.78,37.46-45.05
	c-0.03,4.61-0.38,9.18-1.06,13.61c2.41-4.04,4.57-8.6,6.37-13.7c0.31-0.89,0.61-1.8,0.91-2.71c4.07-1.75,8.4-3.46,12.97-5.11
	c-1.52,6.24-2.69,12.36-3.55,18.25c2.61-7.37,5.63-14.12,8.95-20.15c23.56-8.02,52.84-14.73,86.34-19.6
	c-4.83,10.89-6.08,13.36-8.02,21.87c0.78-1.55,9.7-14.75,14.56-22.79c36.23-4.93,76.78-7.68,119.66-7.68
	c1.81,0,9.07,0.02,10.87,0.02c-2.36,3.18-8.07,11.34-8.07,11.34s6.35-5.88,16.27-11.17c54.21,1.05,103.75,6.49,144.42,15.06
	c-6.23,9.12-7.49,13.34-7.49,13.34s7.49-6.04,12.94-12.17c70.39,15.63,110.62,40.25,102.47,66.65
	c-7.71,25.01-57.36,46.05-125.81,58.41c-2.92-4.76-5.83-9.89-8.7-15.38c-0.67-1.28-1.33-2.55-1.97-3.83
	c0.89,6.12,2.78,13.01,5.57,20.12c-37.51,6.44-80.93,10.43-127.18,11.2c-9.59-9.03-20.3-21.66-30.86-37.01
	c-0.89-1.3-1.78-2.61-2.64-3.93c2.69,10.18,8.4,22.23,16.33,33.65c1.83,2.63,3.69,5.08,5.57,7.4c-1.53,0-3.07,0.02-4.61,0.02
	c-36.44,0-71.2-2-102.92-5.63c-5.54-6.07-11.34-12.79-17.27-20.08c-1.03-1.27-2.06-2.55-3.08-3.82c3.41,6.88,8.43,14.92,14.56,23.21
	c-30.02-3.66-57.39-8.82-80.77-15.17c-5.01-4.88-10.14-10.51-15.22-16.81c2.96,5.05,6.21,10.18,9.73,15.28
	c-4.68-1.35-9.2-2.74-13.53-4.18c-0.59-0.75-1.2-1.5-1.83-2.25c-3.58-4.29-7.37-8.21-11.25-11.73
	C100.19,139.69,102.32,143.59,104.13,147.47z M302.67,102.31c-161.41,0-291.15-2.03-291.01,4.04c0.14,5.99,130.97,4,291.01,4
	s290.32-1.78,291.01-4C594.37,104.13,464.09,102.31,302.67,102.31z M47.71,106.35c-0.36-1.35-0.59-2.69-0.7-4.04
	c-20.24,0.03-36.02,1.83-35.35,4.04c0.67,2.19,17.42,3.97,37.51,4C48.57,109.04,48.09,107.69,47.71,106.35z"/>
<g>
	<path class="st0" d="M130.27,65.32c0-1.16,0.95-2.1,2.1-2.1h8.26c5.71,0,9.81,4.21,9.81,9.42c0,3.16-1.66,6.41-5.35,7.76
		c3.85,1.35,5.85,4.76,5.85,8.26c0,5.3-4.21,9.6-10.01,9.6h-8.56c-1.16,0-2.1-0.95-2.1-2.16V65.32z M140.33,94.29
		c3.75,0,6.21-2.6,6.21-5.91c0-3.25-2.6-5.91-5.85-5.91h-1.96c-1.09,0-1.96-0.84-1.96-1.96s0.84-2,1.96-2h1.66
		c3.16,0,5.66-2.5,5.66-5.66c0-3.21-2.35-5.71-6.01-5.71h-5.51v27.15H140.33z"/>
	<path class="st0" d="M159.1,74.31c0-1.09,0.84-2,2-2c1.09,0,2,0.91,2,2v12.97c0,5.1,3.1,7.76,6.96,7.76c3.91,0,7.01-2.66,7.01-7.76
		V74.31c0-1.09,0.84-2,2-2c1.09,0,2,0.91,2,2v12.81c0,7.26-4.85,11.61-11.01,11.61c-6.1,0-10.96-4.35-10.96-11.61V74.31z"/>
	<path class="st0" d="M191.93,72.72c0.41-6.1,4.71-9.92,10.56-9.92c1.05,0,1.85,0.84,1.85,1.85c0,1.05-0.84,1.85-1.85,1.85
		c-3.71,0-6.16,2.21-6.51,6.21h6.51c1.05,0,1.85,0.8,1.85,1.85c0,1-0.8,1.85-1.85,1.85h-6.55v20.18c0,1.16-0.91,2.05-2,2.05
		c-1.16,0-2-0.91-2-2.05V76.39h-2.66c-1.05,0-1.85-0.84-1.85-1.85c0-1.05,0.8-1.85,1.85-1.85h2.66V72.72z"/>
	<path class="st0" d="M213.86,72.72c0.41-6.1,4.71-9.92,10.56-9.92c1.05,0,1.85,0.84,1.85,1.85c0,1.05-0.84,1.85-1.85,1.85
		c-3.71,0-6.16,2.21-6.51,6.21h6.51c1.05,0,1.85,0.8,1.85,1.85c0,1-0.8,1.85-1.85,1.85h-6.55v20.18c0,1.16-0.91,2.05-2,2.05
		c-1.16,0-2-0.91-2-2.05V76.39h-2.66c-1.05,0-1.85-0.84-1.85-1.85c0-1.05,0.8-1.85,1.85-1.85h2.66V72.72z"/>
	<path class="st0" d="M233.68,64.82c0-1.09,0.84-2,2-2c1.09,0,2,0.91,2,2V96.6c0,1.16-0.91,2.05-2,2.05c-1.16,0-2-0.91-2-2.05V64.82
		z"/>
	<path class="st0" d="M245.78,85.48c0-7.41,5.71-13.26,13.22-13.26c3.64,0,6.71,1.41,8.67,3.21c0.45,0.41,0.75,0.95,0.75,1.55
		c0,0.5-0.16,0.95-0.66,1.5l-8.92,10.67c-0.41,0.45-0.84,0.66-1.41,0.66c-1.09,0-1.91-0.75-1.91-1.8c0-0.45,0.09-0.91,0.45-1.25
		l7.81-9.21c-1.3-1.09-3.16-1.6-4.8-1.6c-5.1,0-9.17,4.21-9.17,9.56c0,5.3,4,9.56,9.17,9.56c2.85,0,5.1-1.25,6.65-3
		c0.55-0.5,1-0.91,1.7-0.91c1.16,0,2,0.8,2,1.91c0,0.41-0.25,0.95-0.59,1.35c-2.1,2.5-5.55,4.35-9.76,4.35
		C251.54,98.75,245.78,92.9,245.78,85.48z"/>
	<path class="st0" d="M292.39,65.32c0-1.16,0.95-2.1,2.1-2.1h10.01c10.67,0,17.93,7.76,17.93,17.52s-7.26,17.52-17.97,17.52h-9.96
		c-1.16,0-2.1-0.95-2.1-2.16V65.32z M304.5,94.29c8.21,0,13.56-6.01,13.56-13.56c0-7.55-5.35-13.56-13.56-13.56h-7.85v27.12H304.5z"
		/>
	<path class="st0" d="M330.07,66.51c0-1.41,1.09-2.5,2.5-2.5c1.35,0,2.5,1.09,2.5,2.5c0,1.35-1.16,2.5-2.5,2.5
		C331.17,69.01,330.07,67.87,330.07,66.51z M330.58,74.31c0-1.09,0.84-2,2-2c1.09,0,2,0.91,2,2v22.27c0,1.16-0.91,2.05-2,2.05
		c-1.16,0-2-0.91-2-2.05V74.31z"/>
	<path class="st0" d="M344.5,90.74c0.66,0,1.45,0.41,1.7,1.2c0.45,1.41,1.75,3.21,4.46,3.21c2.41,0,3.96-1.75,3.96-3.66
		c0-2.5-2-3.66-4.66-4.55c-3.46-1.16-6.96-2.5-6.96-7.46c0-4.1,3.25-7.26,7.71-7.26c4.21,0,7.76,2.6,7.76,6.01c0,1-0.8,1.8-1.8,1.8
		c-0.55,0-1.45-0.25-1.75-1.41c-0.34-1.3-1.85-2.85-4.21-2.85c-2.46,0-3.85,1.75-3.85,3.71c0,2.66,2.41,3.55,5.35,4.5
		c3.16,0.95,6.41,2.71,6.41,7.41c0,3.96-3.41,7.35-7.96,7.35c-4.35,0-7.96-2.96-7.96-6.21C342.7,91.53,343.5,90.74,344.5,90.74z"/>
	<path class="st0" d="M365.61,85.48c0-7.41,5.71-13.26,13.22-13.26c4.16,0,7.66,1.8,9.76,4.3c0.34,0.41,0.59,0.95,0.59,1.41
		c0,1.09-0.84,1.85-2,1.85c-0.75,0-1.16-0.41-1.7-0.84c-1.55-1.75-3.8-3-6.65-3c-5.1,0-9.17,4.21-9.17,9.56
		c0,5.3,4.05,9.56,9.17,9.56c2.8,0,5.1-1.25,6.65-3c0.5-0.45,0.95-0.91,1.7-0.91c1.16,0,2,0.8,2,1.91c0,0.41-0.25,0.95-0.59,1.35
		c-2.1,2.5-5.55,4.35-9.76,4.35C371.32,98.75,365.61,92.9,365.61,85.48z"/>
	<path class="st0" d="M411.21,80.73c0-10.06,7.85-18.02,17.82-18.02c5.6,0,10.46,2.55,13.56,6.3c0.41,0.45,0.59,1,0.59,1.5
		c0,1.16-0.95,2.1-2.16,2.1c-0.55,0-1.2-0.34-1.7-0.84c-2.41-3-6.01-5.01-10.31-5.01c-7.51,0-13.42,6.16-13.42,13.97
		c0,7.76,5.91,13.92,13.42,13.92c6.55,0,11.76-4.71,12.97-10.96h-10.01c-1.09,0-1.96-0.84-1.96-1.96c0-1.11,0.84-2,1.96-2h12.81
		c1.09,0,1.96,0.91,1.96,2.1c-0.3,8.56-7.6,16.92-17.72,16.92C419.08,98.75,411.21,90.78,411.21,80.73z"/>
	<path class="st0" d="M453.35,85.48c0-7.41,5.71-13.26,13.22-13.26c7.51,0,13.17,5.85,13.17,13.26s-5.66,13.26-13.17,13.26
		C459.06,98.75,453.35,92.9,453.35,85.48z M475.68,85.48c0-5.3-3.96-9.56-9.1-9.56c-5.16,0-9.17,4.25-9.17,9.56
		c0,5.26,4,9.56,9.17,9.56C471.72,95.04,475.68,90.74,475.68,85.48z"/>
	<path class="st0" d="M487.9,64.82c0-1.09,0.84-2,2-2c1.09,0,2,0.91,2,2V96.6c0,1.16-0.91,2.05-2,2.05c-1.16,0-2-0.91-2-2.05V64.82z
		"/>
	<path class="st0" d="M503.67,72.72c0.41-6.1,4.71-9.92,10.56-9.92c1.05,0,1.85,0.84,1.85,1.85c0,1.05-0.84,1.85-1.85,1.85
		c-3.71,0-6.16,2.21-6.51,6.21h6.51c1.05,0,1.85,0.8,1.85,1.85c0,1-0.8,1.85-1.85,1.85h-6.55v20.18c0,1.16-0.91,2.05-2,2.05
		c-1.16,0-2-0.91-2-2.05V76.39h-2.66c-1.05,0-1.85-0.84-1.85-1.85c0-1.05,0.8-1.85,1.85-1.85h2.66V72.72z"/>
</g>
<path class="st2" d="M151.97-426.78c-20.79-7.28-32.95-16.08-32.95-25.55c0-9.48,12.16-18.28,32.95-25.55
	c-0.7,2.51-1.6,5.01-2.73,7.47c2.22-2.24,4.34-4.75,6.27-7.52c0.34-0.49,0.66-0.97,0.98-1.46c2.94-0.94,6.03-1.86,9.26-2.74
	c-1.83,3.35-3.43,6.67-4.82,9.91c2.75-4.04,5.65-7.7,8.62-10.92c16.38-4.23,36.08-7.71,58.11-10.21c-3.89,5.62-4.89,6.91-6.79,11.41
	c0.63-0.83,7.4-7.75,11.07-11.88c23.53-2.5,49.57-3.89,76.98-3.89c1.16,0,5.8,0.01,6.95,0.01c-1.45,1.6-5,5.76-5,5.76
	s4-3,10.25-5.67c34.73,0.53,66.92,3.28,94.09,7.67c-2.99,4.76-3.34,7-3.34,7s4.2-3.19,7.01-6.39c48.38,8.23,79.93,21.73,79.93,37.01
	c0,15.27-31.56,28.78-79.93,37.01c-2.81-3.2-5.64-6.61-8.44-10.21c-0.65-0.83-1.28-1.66-1.91-2.49c1.41,3.98,3.69,8.55,6.68,13.31
	c-27.17,4.39-59.37,7.15-94.09,7.67c-7.39-6.2-15.5-14.68-23.27-24.65c-0.65-0.83-1.28-1.66-1.91-2.5
	c1.95,6.53,6.17,14.43,12.16,22.13c1.4,1.8,2.83,3.5,4.28,5.1c-1.15,0-2.31,0.01-3.47,0.01c-27.4,0-53.45-1.39-76.98-3.89
	c-3.67-4.13-7.43-8.65-11.18-13.46c-0.65-0.83-1.29-1.66-1.92-2.49c1.9,4.5,4.93,9.86,8.82,15.48c-22.04-2.5-41.73-5.98-58.11-10.21
	c-2.97-3.22-5.87-6.87-8.62-10.92c1.39,3.24,2.99,6.56,4.82,9.91c-3.23-0.89-6.32-1.8-9.26-2.74c-0.32-0.49-0.65-0.98-0.98-1.46
	c-1.93-2.77-4.04-5.28-6.27-7.52C150.36-431.79,151.27-429.29,151.97-426.78z M296.37-454.72c-111.8,0-201.24-1.19-202.44,2.39
	c-1.19,3.58,90.63,2.39,202.44,2.39s202.44-1.07,202.44-2.39S408.18-454.72,296.37-454.72z M119.02-452.33c0-0.8,0.09-1.6,0.27-2.39
	c-14.03,0.02-25.35,1.08-25.35,2.39c0,1.31,11.32,2.37,25.35,2.39C119.11-450.74,119.02-451.53,119.02-452.33z"/>
<rect x="118.87" y="-479.95" class="st7" width="380" height="40"/>
<text transform="matrix(1 0 0 1 183.5125 -457.2927)" class="st8" style="font-family:'BCAlphapipeRB-Regular'; font-size:32px;">Buffle Disc Golf</text>
</svg>
